<svg width="12" height="79" viewBox="0 0 12 79" fill="none" xmlns="http://www.w3.org/2000/svg">
<path fill-rule="evenodd" clip-rule="evenodd" d="M6 3C6.55228 3 7 3.55324 7 4L7 6C7 6.44676 6.55229 7 6 7C5.44772 7 5 6.44676 5 6L5 4C5 3.55324 5.44772 3 6 3ZM6 9C6.55229 9 7 9.55324 7 10L7 14C7 14.4468 6.55229 15 6 15C5.44772 15 5 14.4468 5 14L5 10C5 9.55324 5.44772 9 6 9ZM6 17C6.55229 17 7 17.5532 7 18L7 22C7 22.4468 6.55229 23 6 23C5.44772 23 5 22.4468 5 22L5 18C5 17.5532 5.44772 17 6 17ZM6 25C6.55229 25 7 25.5532 7 26L7 30C7 30.4468 6.55229 31 6 31C5.44772 31 5 30.4468 5 30L5 26C5 25.5532 5.44772 25 6 25ZM6 34C6.55229 34 7 33.5532 7 34L7 39C7 39.4468 6.55229 39 6 39C5.44772 39 5 39.4468 5 39L5 34C5 33.5532 5.44772 34 6 34ZM6 42C6.55229 42 7 42.5532 7 43L7.00001 47C7.00001 47.4468 6.55229 48 6.00001 48C5.44772 48 5.00001 47.4468 5.00001 47L5 43C5 42.5532 5.44772 42 6 42ZM6.00001 50C6.55229 50 7.00001 50.5532 7.00001 51L7.00001 55C7.00001 55.4468 6.55229 56 6.00001 56C5.44772 56 5.00001 55.4468 5.00001 55L5.00001 51C5.00001 50.5532 5.44772 50 6.00001 50ZM6.00001 58C6.55229 58 7.00001 58.5532 7.00001 59L7.00001 63C7.00001 63.4468 6.55229 64 6.00001 64C5.44772 64 5.00001 63.4468 5.00001 63L5.00001 59C5.00001 58.5532 5.44772 58 6.00001 58ZM6.00001 66C6.55229 66 7.00001 66.5532 7.00001 67L7.00001 69C7.00001 69.4468 6.55229 70 6.00001 70C5.44772 70 5.00001 69.4468 5.00001 69L5.00001 67C5.00001 66.5532 5.44772 66 6.00001 66Z" fill="#C9FF66"/>
<path d="M7.07948 72.3217L11.7712 64.774C12.332 63.8717 11.8015 62.7091 10.8354 62.5254C10.6609 62.4922 10.4827 62.5313 10.3155 62.5916L5.99995 64.1474L1.6844 62.5916C1.51722 62.5313 1.33904 62.4922 1.16447 62.5254C0.212052 62.7069 -0.321069 63.8412 0.210339 64.7436L4.65509 72.2913C5.20403 73.2235 6.50877 73.2398 7.07948 72.3217Z" fill="#C9FF66"/>
</svg>
